<?xml version="1.0" encoding="UTF-8"?><svg id="Capa_1" xmlns="http://www.w3.org/2000/svg" width="2000" height="499.289" viewBox="0 0 2000 499.289"><polygon points="385.457 53.331 385.457 94.874 475.596 94.874 475.596 308.022 522.098 308.022 522.098 94.874 612.237 94.874 612.237 53.331 385.457 53.331" fill="#0c6655"/><path d="M1077.182,185.799v-8.379c0-19.36-4.451-34.248-13.239-44.247-8.69-9.901-21.864-16.472-39.137-19.528-15.833-2.815-36.159-4.239-60.404-4.239-20.268,0-37.779,1.076-52.041,3.191-15.211,2.25-27.813,6.922-37.452,13.886-10.007,7.237-17.347,17.936-21.807,31.798-4.173,12.957-6.292,30.186-6.292,51.207,0,21.618,2.111,39.297,6.276,52.544,4.443,14.176,11.775,25.067,21.798,32.378,9.639,7.029,22.257,11.709,37.509,13.91,14.27,2.062,31.773,3.105,52.009,3.105,18.313,0,34.383-.745,47.762-2.217,14.099-1.542,25.972-4.689,35.292-9.353,10.097-5.045,17.723-12.675,22.666-22.678,4.754-9.627,7.062-21.733,7.062-37.014v-8.379h-45.258v8.379c0,7.188-.843,12.838-2.512,16.791-1.309,3.093-3.699,5.441-7.307,7.18-4.541,2.185-11.333,3.69-20.178,4.472-9.655.851-22.281,1.285-37.525,1.285-17.887,0-32.198-.728-42.533-2.168-8.993-1.256-15.457-3.625-19.221-7.053-3.6-3.261-6.022-8.579-7.192-15.813-1.424-8.719-2.144-20.62-2.144-35.369,0-14.213.72-25.677,2.136-34.085,1.154-6.906,3.559-12.012,7.135-15.187,3.731-3.314,10.416-5.744,19.327-7.029,10.318-1.485,24.613-2.238,42.492-2.238,19.933,0,35.357.802,45.839,2.385,10.973,1.657,15.539,4.717,17.429,6.984,2.782,3.347,4.255,9.263,4.255,17.102v8.379h45.258Z" fill="#0c6655"/><path d="M1330.281,145.254c-6.669-13.698-17.969-23.316-33.598-28.594-14.287-4.811-33.77-7.254-57.9-7.254-18.288,0-33.36,1.064-44.8,3.154-12.151,2.226-21.708,5.552-29.204,10.167-1.285.786-2.528,1.604-3.739,2.459v-12.368h-46.502v195.204h46.502v-115.882c0-9.934,1.972-17.936,5.867-23.779,3.699-5.556,10.531-9.803,20.301-12.63,10.948-3.175,26.536-4.783,46.313-4.783,13.059,0,23.901.622,32.239,1.849,7.315,1.08,12.978,3.109,16.815,6.039,3.543,2.708,6.039,6.783,7.618,12.458,1.849,6.673,2.79,15.825,2.79,27.195v109.532h46.657v-109.532c0-22.866-3.06-40.283-9.361-53.236Z" fill="#0c6655"/><path d="M1600.662,180.365c0-19.258-4.37-34.334-12.978-44.82-8.592-10.445-21.463-17.564-38.262-21.152-15.49-3.31-35.152-4.987-58.448-4.987-20.268,0-37.705,1.076-51.812,3.195-15.081,2.254-27.559,6.935-37.092,13.91-9.909,7.25-17.118,17.969-21.414,31.863-4.001,12.949-6.031,30.145-6.031,51.113,0,21.598,2.078,39.268,6.186,52.52,4.402,14.185,11.685,25.084,21.635,32.387,9.59,7.037,22.167,11.722,37.37,13.927,14.221,2.062,31.691,3.105,51.935,3.105,17.552,0,32.951-.499,45.798-1.489,13.509-1.047,24.908-3.539,33.884-7.401,9.934-4.275,17.445-11.19,22.314-20.555,4.55-8.739,6.71-17.511,6.612-26.818l-.09-8.309-44.685.09.065,8.424c.008,1.571-.655,3.171-1.465,5.126-.565,1.366-1.767,3.375-5.671,5.016-2.831,1.199-8.469,2.77-19.278,3.465-9.426.61-22.044.916-37.484.916-17.028,0-30.783-.63-40.88-1.878-8.927-1.101-15.514-3.228-19.556-6.317-3.682-2.811-6.112-7.102-7.438-13.121-1.244-5.63-2.046-12.859-2.397-21.569h179.182v-46.641ZM1555.404,180.365v8.874h-133.875c.417-8.076,1.293-15.171,2.479-19.524,1.375-5.049,3.821-8.682,7.471-11.104,4.239-2.811,10.916-4.787,19.835-5.867,9.925-1.191,23.263-1.796,39.661-1.796,15.457,0,28.025.552,37.362,1.645,10.572,1.244,16.013,3.359,18.73,4.914,3.216,1.841,5.196,4.095,6.243,7.111,1.391,3.981,2.095,9.279,2.095,15.747Z" fill="#0c6655"/><path d="M812.521,180.365c0-19.258-4.37-34.334-12.978-44.82-8.592-10.445-21.463-17.564-38.262-21.152-15.49-3.31-35.152-4.987-58.448-4.987-20.268,0-37.705,1.076-51.812,3.195-15.081,2.254-27.559,6.935-37.092,13.91-9.909,7.25-17.118,17.969-21.414,31.863-4.001,12.949-6.031,30.145-6.031,51.113,0,21.598,2.078,39.268,6.186,52.52,4.402,14.185,11.685,25.084,21.635,32.387,9.59,7.037,22.167,11.722,37.37,13.927,14.221,2.062,31.691,3.105,51.935,3.105,17.552,0,32.951-.499,45.798-1.489,13.509-1.047,24.908-3.539,33.884-7.401,9.934-4.275,17.445-11.19,22.314-20.546,4.55-8.719,6.71-17.494,6.612-26.827l-.09-8.309-44.677.09.065,8.424c.008,1.551-.646,3.146-1.473,5.126-.565,1.366-1.767,3.375-5.671,5.016-2.831,1.199-8.469,2.77-19.278,3.465-9.426.61-22.044.916-37.484.916-17.028,0-30.783-.63-40.88-1.878-8.927-1.101-15.514-3.228-19.556-6.317-3.682-2.811-6.112-7.102-7.438-13.121-1.244-5.63-2.046-12.859-2.397-21.569h179.182v-46.641ZM767.263,180.365v8.874h-133.875c.417-8.076,1.293-15.171,2.479-19.524,1.375-5.049,3.821-8.682,7.471-11.104,4.239-2.811,10.916-4.787,19.835-5.867,9.925-1.191,23.263-1.796,39.661-1.796,15.457,0,28.025.552,37.362,1.645,10.572,1.244,16.013,3.359,18.73,4.914,3.216,1.841,5.196,4.095,6.243,7.111,1.391,3.981,2.095,9.279,2.095,15.747Z" fill="#0c6655"/><path d="M1752.557,117.261c-22.846.855-53.252,1.992-71.851,13.284v-17.728h-46.502v195.204h46.502v-110.404c0-36.703,19.622-38.413,60.437-38.585,4.37-.02,8.821-.041,13.297-.131l8.207-.172v-41.846l-10.089.376Z" fill="#0c6655"/><path d="M1996.375,163.967c-2.618-14.07-7.888-25.325-15.661-33.463-7.806-8.17-19.057-13.853-33.45-16.893-13.264-2.79-30.807-4.206-52.148-4.206-19.573,0-36.077.638-49.063,1.898-13.869,1.35-24.646,3.94-32.935,7.908-9.148,4.378-15.743,10.985-19.605,19.63-3.559,7.978-5.294,17.912-5.294,30.37v8.379h46.502v-8.379c0-4.717.417-8.473,1.244-11.153.123-.397.499-1.612,3.338-2.856,2.316-1.015,7.25-2.389,17.666-3.191,9.05-.708,21.88-1.064,38.147-1.064,14.066,0,25.415.528,33.745,1.563,7.045.876,12.274,2.708,15.539,5.458,3.052,2.561,5.237,6.898,6.489,12.888,1.113,5.319,1.882,12.229,2.291,20.62-7.323-1.15-15.269-2.013-23.73-2.582-12.462-.839-28.025-1.264-46.264-1.264-22.756,0-41.486,1.186-55.65,3.523-15.751,2.59-27.616,8.539-35.275,17.683-7.724,9.23-11.48,22.666-11.48,41.081,0,17.961,4.132,31.675,12.29,40.753,8.043,8.976,20.121,14.802,35.889,17.318,14.23,2.279,32.477,3.437,54.226,3.437,16.218,0,29.776-.561,40.307-1.665,11.071-1.174,14.621-1.378,20.992-5.039,5.547-3.187,6.797-5.498,9.013-9.33v12.63h46.502v-94.198c0-20.141-1.219-36.92-3.625-49.857ZM1953.498,248.526c0,7.88-1.023,12.09-1.882,14.234-.458,1.154-1.514,2.843-5.335,4.206-3.019,1.076-9.132,2.455-21.136,2.933-10.376.401-24.49.606-41.96.606-13.755,0-24.916-.254-33.18-.753-9.377-.569-14.262-1.911-16.717-2.938-2.97-1.24-3.862-2.749-4.312-3.932-.777-2.017-1.694-5.904-1.694-12.965,0-7.352.941-11.46,1.727-13.608.466-1.272,1.391-2.897,4.353-4.173,2.447-1.051,7.323-2.434,16.701-3.056,6.031-.405,13.632-.61,22.666-.61,3.265,0,6.718.029,10.359.082l70.411.835v19.139Z" fill="#0c6655"/><path d="M70.402,358.773c49.339,0,109.785-50.821,112.059-98.993v-17.486c0-48.976-61.984-101.778-112.273-101.778l-58.023-.023c-6.742,0-12.165-5.429-12.165-12.167V12.165C0,5.428,5.423,0,12.165,0h116.159C135.061,0,140.489,5.428,140.489,12.165v58.166c.08,52.88,59.059,108.994,110.079,108.994h60.345c3.379,0,6.432,1.392,8.642,3.632,2.274,2.209,3.71,5.269,3.71,8.664v116.208c0,6.778-5.466,12.135-12.138,12.135h-60.345c-51.02,0-109.999,56.114-110.079,108.994v58.166c0,6.737-5.429,12.165-12.165,12.165H12.379c-6.742,0-12.165-5.428-12.165-12.165v-116.161c0-6.737,5.423-12.167,12.165-12.167l58.023-.023Z" fill="#0c6655"/><path d="M476.342,459.101v-50.037h9.478v50.037h-9.478Z" fill="#0c6655"/><path d="M498.733,459.101v-50.037h9.047l21.367,29.539c.243.296.532.694.876,1.206.337.512.653,1.01.95,1.495.29.485.485.876.579,1.165h.364v-33.405h9.121v50.037h-8.973l-21.442-29.761c-.391-.579-.842-1.3-1.354-2.149-.505-.849-.862-1.448-1.058-1.785h-.364v33.695h-9.114Z" fill="#0c6655"/><path d="M553.944,459.101v-50.037h9.047l21.367,29.539c.243.296.532.694.876,1.206.337.512.653,1.01.95,1.495.29.485.485.876.579,1.165h.364v-33.405h9.121v50.037h-8.973l-21.442-29.761c-.391-.579-.842-1.3-1.354-2.149-.505-.849-.862-1.448-1.058-1.785h-.364v33.695h-9.114Z" fill="#0c6655"/><path d="M632.138,459.977c-5.207,0-9.7-.936-13.499-2.809-3.793-1.873-6.696-4.729-8.71-8.569-2.021-3.84-3.031-8.683-3.031-14.517,0-5.881,1.01-10.731,3.031-14.55,2.014-3.819,4.917-6.662,8.71-8.535,3.799-1.873,8.292-2.809,13.499-2.809,5.248,0,9.761.936,13.526,2.809,3.766,1.873,6.662,4.715,8.683,8.535,2.014,3.819,3.025,8.67,3.025,14.55,0,5.834-1.01,10.677-3.025,14.517-2.021,3.84-4.917,6.696-8.683,8.569-3.766,1.873-8.279,2.809-13.526,2.809ZM632.138,451.954c2.526,0,4.749-.364,6.669-1.098,1.92-.728,3.537-1.805,4.85-3.24,1.314-1.435,2.311-3.213,2.991-5.328.68-2.115,1.024-4.554,1.024-7.329v-1.603c0-2.822-.344-5.301-1.024-7.444-.68-2.135-1.677-3.921-2.991-5.355-1.314-1.435-2.93-2.519-4.85-3.247-1.92-.728-4.143-1.098-6.669-1.098s-4.756.37-6.676,1.098c-1.92.728-3.537,1.812-4.85,3.247-1.314,1.435-2.297,3.22-2.957,5.355-.653,2.142-.983,4.621-.983,7.444v1.603c0,2.775.33,5.214.983,7.329.66,2.115,1.644,3.894,2.957,5.328s2.93,2.513,4.85,3.24c1.92.734,4.143,1.098,6.676,1.098Z" fill="#0c6655"/><path d="M680.343,459.101l-18.235-50.037h10.286l11.89,34.429c.195.485.391,1.044.579,1.677.195.633.391,1.226.586,1.785s.364,1.058.512,1.495h.364c.148-.391.303-.849.472-1.388.175-.532.357-1.105.552-1.711.189-.606.384-1.206.579-1.785l11.815-34.503h9.848l-18.235,50.037h-11.014Z" fill="#0c6655"/><path d="M709.955,459.101l19.475-50.037h11.964l19.549,50.037h-10.286l-4.015-10.65h-22.897l-4.015,10.65h-9.774ZM726.729,440.428h16.854l-5.032-13.567c-.195-.485-.431-1.105-.694-1.859-.269-.754-.552-1.576-.842-2.479-.29-.896-.579-1.812-.876-2.735-.29-.923-.559-1.751-.802-2.479h-.364c-.29.97-.647,2.088-1.058,3.355-.411,1.266-.815,2.452-1.206,3.57-.391,1.125-.701,2.001-.943,2.627l-5.039,13.567Z" fill="#0c6655"/><path d="M789.605,459.977c-5.106,0-9.471-.903-13.095-2.701-3.624-1.799-6.393-4.608-8.313-8.42-1.92-3.819-2.883-8.744-2.883-14.773,0-8.798,2.142-15.318,6.42-19.549,4.278-4.23,10.232-6.346,17.871-6.346,4.129,0,7.861.707,11.196,2.115,3.328,1.415,5.982,3.543,7.949,6.386,1.967,2.843,2.957,6.453,2.957,10.832h-9.707c0-2.432-.519-4.486-1.563-6.164-1.051-1.677-2.492-2.957-4.345-3.833-1.846-.876-3.961-1.314-6.346-1.314-3.308,0-6.049.647-8.238,1.933-2.189,1.293-3.806,3.2-4.85,5.726-1.044,2.533-1.57,5.665-1.57,9.411v1.603c0,3.793.525,6.959,1.57,9.485,1.044,2.526,2.647,4.426,4.816,5.685,2.162,1.266,4.917,1.9,8.272,1.9,2.533,0,4.742-.424,6.642-1.28,1.893-.849,3.368-2.115,4.412-3.793,1.044-1.677,1.57-3.732,1.57-6.164h9.336c0,4.379-.977,7.989-2.924,10.832-1.94,2.849-4.581,4.965-7.908,6.346-3.334,1.388-7.087,2.082-11.27,2.082Z" fill="#0c6655"/><path d="M821.986,459.101v-50.037h9.478v50.037h-9.478Z" fill="#0c6655"/><path d="M867.355,459.977c-5.207,0-9.7-.936-13.499-2.809-3.793-1.873-6.696-4.729-8.71-8.569-2.021-3.84-3.031-8.683-3.031-14.517,0-5.881,1.01-10.731,3.031-14.55,2.014-3.819,4.917-6.662,8.71-8.535,3.799-1.873,8.292-2.809,13.499-2.809,5.248,0,9.761.936,13.526,2.809,3.766,1.873,6.662,4.715,8.683,8.535,2.014,3.819,3.025,8.67,3.025,14.55,0,5.834-1.01,10.677-3.025,14.517-2.021,3.84-4.917,6.696-8.683,8.569-3.766,1.873-8.279,2.809-13.526,2.809ZM867.355,451.954c2.526,0,4.749-.364,6.669-1.098,1.92-.728,3.537-1.805,4.85-3.24,1.314-1.435,2.311-3.213,2.991-5.328.68-2.115,1.024-4.554,1.024-7.329v-1.603c0-2.822-.344-5.301-1.024-7.444-.68-2.135-1.677-3.921-2.991-5.355-1.314-1.435-2.93-2.519-4.85-3.247-1.92-.728-4.143-1.098-6.669-1.098s-4.756.37-6.676,1.098c-1.92.728-3.537,1.812-4.85,3.247-1.314,1.435-2.297,3.22-2.957,5.355-.653,2.142-.983,4.621-.983,7.444v1.603c0,2.775.33,5.214.983,7.329.66,2.115,1.644,3.894,2.957,5.328,1.314,1.435,2.93,2.513,4.85,3.24,1.92.734,4.143,1.098,6.676,1.098ZM863.124,405.42l5.908-9.626h9.626l.074.216-7.881,9.411h-7.726Z" fill="#0c6655"/><path d="M903.239,459.101v-50.037h9.047l21.367,29.539c.243.296.532.694.876,1.206.337.512.653,1.01.95,1.495.29.485.485.876.579,1.165h.364v-33.405h9.121v50.037h-8.973l-21.442-29.761c-.391-.579-.842-1.3-1.354-2.149-.505-.849-.862-1.448-1.058-1.785h-.364v33.695h-9.114Z" fill="#0c6655"/><path d="M974.866,459.101v-50.037h39.023v8.097h-29.545v12.327h26.332v8.097h-26.332v13.419h29.983v8.097h-39.461Z" fill="#0c6655"/><path d="M1025.704,459.101v-50.037h9.047l21.367,29.539c.243.296.532.694.876,1.206.337.512.653,1.01.95,1.495.29.485.485.876.579,1.165h.364v-33.405h9.121v50.037h-8.973l-21.442-29.761c-.391-.579-.842-1.3-1.354-2.149-.505-.849-.862-1.448-1.058-1.785h-.364v33.695h-9.114Z" fill="#0c6655"/><path d="M1115.997,459.977c-2.775,0-5.423-.303-7.949-.909-2.533-.613-4.769-1.556-6.716-2.849-1.94-1.287-3.476-2.89-4.594-4.81-1.118-1.92-1.677-4.197-1.677-6.824,0-.29.013-.579.04-.876.02-.29.034-.505.034-.653h9.552c0,.094-.007.283-.034.546-.027.269-.034.498-.034.694,0,1.603.458,2.977,1.381,4.123.923,1.138,2.263,2.014,4.015,2.627,1.751.606,3.813.909,6.197.909,1.603,0,3.031-.094,4.271-.29,1.239-.195,2.304-.478,3.206-.842.903-.364,1.644-.802,2.223-1.314.586-.512,1.01-1.078,1.28-1.711.263-.633.397-1.314.397-2.041,0-1.415-.438-2.58-1.314-3.503s-2.055-1.704-3.537-2.337c-1.482-.626-3.159-1.199-5.032-1.711-1.873-.512-3.793-1.031-5.76-1.57-1.974-.532-3.894-1.179-5.766-1.933-1.873-.754-3.55-1.664-5.032-2.735-1.482-1.071-2.661-2.418-3.537-4.048-.876-1.63-1.314-3.584-1.314-5.867,0-2.337.498-4.379,1.495-6.13.997-1.751,2.412-3.193,4.23-4.338,1.826-1.145,3.954-1.994,6.386-2.553,2.432-.559,5.079-.842,7.949-.842,2.674,0,5.187.283,7.551.842,2.358.559,4.432,1.435,6.231,2.627,1.799,1.192,3.213,2.695,4.23,4.52,1.024,1.826,1.536,4.001,1.536,6.527v.876h-9.411v-.728c0-1.415-.424-2.6-1.28-3.577-.849-.97-2.041-1.724-3.57-2.257-1.536-.539-3.321-.808-5.362-.808-2.189,0-4.062.209-5.618.62-1.556.418-2.748,1.024-3.57,1.826-.829.802-1.239,1.785-1.239,2.957,0,1.213.438,2.236,1.314,3.058.876.829,2.048,1.536,3.537,2.115,1.482.586,3.159,1.125,5.032,1.61,1.873.485,3.793,1.01,5.76,1.563,1.974.559,3.894,1.206,5.766,1.933,1.866.734,3.543,1.644,5.032,2.735,1.482,1.098,2.661,2.445,3.537,4.048.876,1.603,1.314,3.53,1.314,5.766,0,3.745-.916,6.756-2.735,9.04-1.826,2.29-4.331,3.941-7.518,4.965-3.18,1.017-6.817,1.529-10.899,1.529Z" fill="#0c6655"/><path d="M1170.776,459.977c-5.207,0-9.7-.936-13.499-2.809-3.793-1.873-6.696-4.729-8.71-8.569-2.021-3.84-3.031-8.683-3.031-14.517,0-5.881,1.01-10.731,3.031-14.55,2.014-3.819,4.917-6.662,8.71-8.535,3.799-1.873,8.292-2.809,13.499-2.809,5.248,0,9.761.936,13.526,2.809,3.766,1.873,6.662,4.715,8.683,8.535,2.014,3.819,3.025,8.67,3.025,14.55,0,5.834-1.01,10.677-3.025,14.517-2.021,3.84-4.917,6.696-8.683,8.569-3.766,1.873-8.279,2.809-13.526,2.809ZM1170.776,451.954c2.526,0,4.749-.364,6.669-1.098,1.92-.728,3.537-1.805,4.85-3.24,1.314-1.435,2.311-3.213,2.991-5.328.68-2.115,1.024-4.554,1.024-7.329v-1.603c0-2.822-.344-5.301-1.024-7.444-.68-2.135-1.677-3.921-2.991-5.355-1.314-1.435-2.93-2.519-4.85-3.247-1.92-.728-4.143-1.098-6.669-1.098s-4.756.37-6.676,1.098c-1.92.728-3.537,1.812-4.85,3.247-1.314,1.435-2.297,3.22-2.957,5.355-.653,2.142-.983,4.621-.983,7.444v1.603c0,2.775.33,5.214.983,7.329.66,2.115,1.644,3.894,2.957,5.328,1.314,1.435,2.93,2.513,4.85,3.24,1.92.734,4.143,1.098,6.676,1.098Z" fill="#0c6655"/><path d="M1206.654,459.101v-50.037h9.478v41.792h25.093v8.245h-34.57Z" fill="#0c6655"/><path d="M1268.29,459.977c-4.379,0-8.144-.707-11.31-2.115-3.159-1.408-5.578-3.563-7.255-6.453-1.677-2.897-2.513-6.507-2.513-10.832v-31.512h9.478v31.216c0,3.846,1.01,6.75,3.031,8.717,2.014,1.974,4.87,2.957,8.569,2.957s6.575-.983,8.643-2.957c2.068-1.967,3.099-4.87,3.099-8.717v-31.216h9.485v31.512c0,4.325-.856,7.935-2.553,10.832-1.704,2.89-4.136,5.045-7.295,6.453-3.159,1.408-6.959,2.115-11.378,2.115Z" fill="#0c6655"/><path d="M1324.161,459.977c-5.106,0-9.471-.903-13.095-2.701-3.624-1.799-6.393-4.608-8.313-8.42-1.92-3.819-2.883-8.744-2.883-14.773,0-8.798,2.142-15.318,6.42-19.549,4.278-4.23,10.232-6.346,17.871-6.346,4.129,0,7.861.707,11.196,2.115,3.328,1.415,5.982,3.543,7.949,6.386,1.967,2.843,2.957,6.453,2.957,10.832h-9.707c0-2.432-.519-4.486-1.563-6.164-1.051-1.677-2.492-2.957-4.345-3.833-1.846-.876-3.961-1.314-6.346-1.314-3.308,0-6.049.647-8.238,1.933-2.189,1.293-3.806,3.2-4.85,5.726-1.044,2.533-1.57,5.665-1.57,9.411v1.603c0,3.793.525,6.959,1.57,9.485,1.044,2.526,2.647,4.426,4.816,5.685,2.162,1.266,4.917,1.9,8.272,1.9,2.533,0,4.742-.424,6.642-1.28,1.893-.849,3.368-2.115,4.412-3.793,1.044-1.677,1.57-3.732,1.57-6.164h9.336c0,4.379-.977,7.989-2.924,10.832-1.94,2.849-4.581,4.965-7.908,6.346-3.334,1.388-7.087,2.082-11.27,2.082Z" fill="#0c6655"/><path d="M1356.542,459.101v-50.037h9.478v50.037h-9.478Z" fill="#0c6655"/><path d="M1401.911,459.977c-5.207,0-9.7-.936-13.499-2.809-3.793-1.873-6.696-4.729-8.71-8.569-2.021-3.84-3.031-8.683-3.031-14.517,0-5.881,1.01-10.731,3.031-14.55,2.014-3.819,4.917-6.662,8.71-8.535,3.799-1.873,8.292-2.809,13.499-2.809,5.248,0,9.761.936,13.526,2.809,3.766,1.873,6.662,4.715,8.683,8.535,2.014,3.819,3.025,8.67,3.025,14.55,0,5.834-1.01,10.677-3.025,14.517-2.021,3.84-4.917,6.696-8.683,8.569-3.766,1.873-8.279,2.809-13.526,2.809ZM1401.911,451.954c2.526,0,4.749-.364,6.669-1.098,1.92-.728,3.537-1.805,4.85-3.24,1.314-1.435,2.311-3.213,2.991-5.328.68-2.115,1.024-4.554,1.024-7.329v-1.603c0-2.822-.344-5.301-1.024-7.444-.68-2.135-1.677-3.921-2.991-5.355-1.314-1.435-2.93-2.519-4.85-3.247-1.92-.728-4.143-1.098-6.669-1.098s-4.756.37-6.676,1.098c-1.92.728-3.537,1.812-4.85,3.247-1.314,1.435-2.297,3.22-2.957,5.355-.653,2.142-.983,4.621-.983,7.444v1.603c0,2.775.33,5.214.983,7.329.66,2.115,1.644,3.894,2.957,5.328s2.93,2.513,4.85,3.24c1.92.734,4.143,1.098,6.676,1.098Z" fill="#0c6655"/><path d="M1437.795,459.101v-50.037h9.047l21.367,29.539c.243.296.532.694.876,1.206.337.512.653,1.01.95,1.495.29.485.485.876.579,1.165h.364v-33.405h9.121v50.037h-8.973l-21.442-29.761c-.391-.579-.842-1.3-1.354-2.149-.505-.849-.862-1.448-1.058-1.785h-.364v33.695h-9.114Z" fill="#0c6655"/><path d="M1493.005,459.101v-50.037h39.023v8.097h-29.545v12.327h26.332v8.097h-26.332v13.419h29.983v8.097h-39.461Z" fill="#0c6655"/><path d="M1562.517,459.977c-2.775,0-5.423-.303-7.949-.909-2.533-.613-4.769-1.556-6.716-2.849-1.94-1.287-3.476-2.89-4.594-4.81-1.118-1.92-1.677-4.197-1.677-6.824,0-.29.013-.579.04-.876.02-.29.034-.505.034-.653h9.552c0,.094-.007.283-.034.546-.027.269-.034.498-.034.694,0,1.603.458,2.977,1.381,4.123.923,1.138,2.263,2.014,4.015,2.627,1.751.606,3.813.909,6.197.909,1.603,0,3.031-.094,4.271-.29,1.239-.195,2.304-.478,3.206-.842.903-.364,1.644-.802,2.223-1.314.586-.512,1.01-1.078,1.28-1.711.263-.633.397-1.314.397-2.041,0-1.415-.438-2.58-1.314-3.503-.876-.923-2.055-1.704-3.537-2.337-1.482-.626-3.159-1.199-5.032-1.711-1.873-.512-3.793-1.031-5.76-1.57-1.974-.532-3.894-1.179-5.766-1.933-1.873-.754-3.55-1.664-5.032-2.735-1.482-1.071-2.661-2.418-3.537-4.048-.876-1.63-1.314-3.584-1.314-5.867,0-2.337.498-4.379,1.495-6.13.997-1.751,2.412-3.193,4.23-4.338,1.826-1.145,3.954-1.994,6.386-2.553,2.432-.559,5.079-.842,7.949-.842,2.674,0,5.187.283,7.551.842,2.358.559,4.432,1.435,6.231,2.627,1.799,1.192,3.213,2.695,4.23,4.52,1.024,1.826,1.536,4.001,1.536,6.527v.876h-9.411v-.728c0-1.415-.424-2.6-1.28-3.577-.849-.97-2.041-1.724-3.57-2.257-1.536-.539-3.321-.808-5.362-.808-2.189,0-4.062.209-5.618.62-1.556.418-2.748,1.024-3.57,1.826-.829.802-1.239,1.785-1.239,2.957,0,1.213.438,2.236,1.314,3.058.876.829,2.048,1.536,3.537,2.115,1.482.586,3.159,1.125,5.032,1.61,1.873.485,3.793,1.01,5.76,1.563,1.974.559,3.894,1.206,5.766,1.933,1.866.734,3.543,1.644,5.032,2.735,1.482,1.098,2.661,2.445,3.537,4.048.876,1.603,1.314,3.53,1.314,5.766,0,3.745-.916,6.756-2.735,9.04-1.826,2.29-4.331,3.941-7.518,4.965-3.18,1.017-6.817,1.529-10.899,1.529Z" fill="#0c6655"/><path d="M1610.728,459.101v-50.037h20.054c5.059,0,9.384.903,12.988,2.701,3.597,1.799,6.366,4.534,8.313,8.205,1.947,3.671,2.917,8.38,2.917,14.112,0,5.692-.97,10.381-2.917,14.079-1.947,3.698-4.715,6.44-8.313,8.238-3.604,1.805-7.929,2.701-12.988,2.701h-20.054ZM1620.206,451.004h10.576c2.337,0,4.406-.337,6.204-1.017,1.799-.68,3.308-1.691,4.52-3.031,1.213-1.334,2.142-3.011,2.775-5.032.626-2.014.943-4.365.943-7.039v-1.529c0-2.721-.317-5.093-.943-7.113-.633-2.014-1.563-3.691-2.775-5.032-1.213-1.334-2.721-2.344-4.52-3.025s-3.867-1.024-6.204-1.024h-10.576v33.843Z" fill="#0c6655"/><path d="M1665.649,459.101v-50.037h9.478v50.037h-9.478Z" fill="#0c6655"/><path d="M1710.795,459.977c-7.733,0-13.735-2.082-18.013-6.238-4.284-4.156-6.42-10.711-6.42-19.656,0-5.881,1.01-10.731,3.025-14.55,2.021-3.819,4.938-6.662,8.757-8.535,3.813-1.873,8.393-2.809,13.742-2.809,3.213,0,6.224.37,9.047,1.098,2.822.728,5.315,1.832,7.477,3.314,2.162,1.489,3.853,3.348,5.066,5.584,1.219,2.236,1.826,4.884,1.826,7.949h-9.774c0-1.603-.35-3.025-1.058-4.264-.701-1.246-1.677-2.29-2.917-3.139-1.239-.849-2.661-1.482-4.264-1.9-1.603-.411-3.308-.62-5.106-.62-2.674,0-5.025.357-7.039,1.058-2.021.707-3.698,1.778-5.032,3.213-1.341,1.435-2.337,3.22-2.991,5.362-.66,2.135-.983,4.641-.983,7.511v1.529c0,3.941.559,7.174,1.677,9.7,1.118,2.533,2.809,4.392,5.066,5.584,2.263,1.192,5.072,1.785,8.427,1.785,2.87,0,5.382-.438,7.551-1.314,2.162-.876,3.86-2.149,5.099-3.826,1.246-1.677,1.866-3.732,1.866-6.164v-.512h-15.978v-7.881h25.456v26.844h-6.783l-.802-5.544c-1.455,1.462-3.018,2.661-4.668,3.611-1.65.95-3.476,1.657-5.47,2.115-1.994.465-4.257.694-6.783.694Z" fill="#0c6655"/><path d="M1747.771,459.101v-50.037h9.478v50.037h-9.478Z" fill="#0c6655"/><path d="M1782.415,459.101v-41.866h-15.972v-8.171h41.502v8.171h-16.053v41.866h-9.478Z" fill="#0c6655"/><path d="M1805.756,459.101l19.475-50.037h11.964l19.549,50.037h-10.286l-4.015-10.65h-22.897l-4.015,10.65h-9.774ZM1822.53,440.428h16.854l-5.032-13.567c-.195-.485-.431-1.105-.694-1.859-.269-.754-.552-1.576-.842-2.479-.29-.896-.579-1.812-.876-2.735-.29-.923-.559-1.751-.802-2.479h-.364c-.29.97-.647,2.088-1.058,3.355-.411,1.266-.815,2.452-1.206,3.57-.391,1.125-.701,2.001-.943,2.627l-5.039,13.567Z" fill="#0c6655"/><path d="M1864.47,459.101v-50.037h9.478v41.792h25.093v8.245h-34.57Z" fill="#0c6655"/><path d="M1907.871,459.101v-50.037h39.023v8.097h-29.545v12.327h26.332v8.097h-26.332v13.419h29.983v8.097h-39.461Z" fill="#0c6655"/><path d="M1977.376,459.977c-2.775,0-5.423-.303-7.949-.909-2.533-.613-4.769-1.556-6.716-2.849-1.94-1.287-3.476-2.89-4.594-4.81-1.118-1.92-1.677-4.197-1.677-6.824,0-.29.013-.579.04-.876.02-.29.034-.505.034-.653h9.552c0,.094-.007.283-.034.546-.027.269-.034.498-.034.694,0,1.603.458,2.977,1.381,4.123.923,1.138,2.263,2.014,4.015,2.627,1.751.606,3.813.909,6.197.909,1.603,0,3.031-.094,4.271-.29,1.239-.195,2.304-.478,3.206-.842.903-.364,1.644-.802,2.223-1.314.586-.512,1.01-1.078,1.28-1.711.263-.633.397-1.314.397-2.041,0-1.415-.438-2.58-1.314-3.503-.876-.923-2.055-1.704-3.537-2.337-1.482-.626-3.159-1.199-5.032-1.711-1.873-.512-3.793-1.031-5.76-1.57-1.974-.532-3.894-1.179-5.766-1.933-1.873-.754-3.55-1.664-5.032-2.735-1.482-1.071-2.661-2.418-3.537-4.048-.876-1.63-1.314-3.584-1.314-5.867,0-2.337.498-4.379,1.495-6.13.997-1.751,2.412-3.193,4.23-4.338,1.826-1.145,3.954-1.994,6.386-2.553,2.432-.559,5.079-.842,7.949-.842,2.674,0,5.187.283,7.551.842,2.358.559,4.432,1.435,6.231,2.627,1.799,1.192,3.213,2.695,4.23,4.52,1.024,1.826,1.536,4.001,1.536,6.527v.876h-9.411v-.728c0-1.415-.424-2.6-1.28-3.577-.849-.97-2.041-1.724-3.57-2.257-1.536-.539-3.321-.808-5.362-.808-2.189,0-4.062.209-5.618.62-1.556.418-2.748,1.024-3.57,1.826-.829.802-1.239,1.785-1.239,2.957,0,1.213.438,2.236,1.314,3.058.876.829,2.048,1.536,3.537,2.115,1.482.586,3.159,1.125,5.032,1.61,1.873.485,3.793,1.01,5.76,1.563,1.974.559,3.894,1.206,5.766,1.933,1.866.734,3.543,1.644,5.032,2.735,1.482,1.098,2.661,2.445,3.537,4.048.876,1.603,1.314,3.53,1.314,5.766,0,3.745-.916,6.756-2.735,9.04-1.826,2.29-4.331,3.941-7.518,4.965-3.18,1.017-6.817,1.529-10.899,1.529Z" fill="#0c6655"/></svg>